<?xml version="1.0" encoding="UTF-8"?>
<svg width="308.976pt" version="1.1" xmlns="http://www.w3.org/2000/svg" height="308.976pt" viewBox="0 0 308.976 308.976" xmlns:xlink="http://www.w3.org/1999/xlink">
 <defs>
  <clipPath id="Clip0">
   <path d="M0 0 L179.404 0 L179.404 140.236 L0 140.236 L0 0 Z" transform="translate(64.7857, 84.3699)"/>
  </clipPath>
  <linearGradient id="Grad0" y1="75.4033" x1="83.2754" y2="-53.5583" gradientUnits="userSpaceOnUse" x2="79.584">
   <stop offset="0%" stop-color="#ffffff" stop-opacity="0.07"/>
   <stop offset="100%" stop-color="#1a1a1a" stop-opacity="0"/>
  </linearGradient>
  <linearGradient id="Grad1" y1="14.9448" x1="1.10819e-06" y2="-41.2142" gradientUnits="userSpaceOnUse" x2="-0.165301">
   <stop offset="0%" stop-color="#ffffff" stop-opacity="0.07"/>
   <stop offset="100%" stop-color="#1a1a1a" stop-opacity="0"/>
  </linearGradient>
  <linearGradient id="Grad2" y1="10.3561" x1="0" y2="-46.6966" gradientUnits="userSpaceOnUse" x2="0">
   <stop offset="0%" stop-color="#ffffff" stop-opacity="0.07"/>
   <stop offset="100%" stop-color="#1a1a1a" stop-opacity="0"/>
  </linearGradient>
  <linearGradient id="Grad3" y1="11.3084" x1="3.69395e-06" y2="-22.5938" gradientUnits="userSpaceOnUse" x2="3.69395e-06">
   <stop offset="0%" stop-color="#ffffff" stop-opacity="0.07"/>
   <stop offset="100%" stop-color="#1a1a1a" stop-opacity="0"/>
  </linearGradient>
  <clipPath id="Clip1">
   <path d="M0 0 L244.391 0 L244.391 26.2515 L0 26.2515 L0 0 Z" transform="translate(32.2925, 24.762)"/>
  </clipPath>
  <clipPath id="Clip2">
   <path d="M0 0 L257.386 0 L257.386 37.0111 L0 37.0111 L0 0 Z" transform="translate(25.7953, 254.848)"/>
  </clipPath>
  <path id="GlDejaVuSans-Bold77" d="M0.917969 2.71 L3.31062 2.71 L4.97078 6.61125 L6.64062 2.71 L9.02828 2.71 L9.02828 10 L7.25094 10 L7.25094 4.66797 L5.57125 8.59859 L4.37984 8.59859 L2.70016 4.66797 L2.70016 10 L0.917969 10 L0.917969 2.71 Z"/>
  <path id="GlDejaVuSans-Bold101" d="M6.29891 7.25094 L6.29891 7.74906 L2.21188 7.74906 C2.21188 7.74906 2.27547 8.36422 2.65625 8.67188 C2.65625 8.67188 3.03719 8.97953 3.72078 8.97953 C3.72078 8.97953 4.2725 8.97953 4.85109 8.81594 C4.85109 8.81594 5.42969 8.65234 6.04 8.32031 L6.04 9.66797 C6.04 9.66797 5.42 9.90234 4.79984 10.0219 C4.79984 10.0219 4.17969 10.1416 3.55953 10.1416 C3.55953 10.1416 2.07516 10.1416 1.25234 9.38719 C1.25234 9.38719 0.429688 8.63281 0.429688 7.27047 C0.429688 7.27047 0.429688 5.93266 1.23781 5.16609 C1.23781 5.16609 2.04594 4.39938 3.46188 4.39938 C3.46188 4.39938 4.75094 4.39938 5.52484 5.17578 C5.52484 5.17578 6.29891 5.95219 6.29891 7.25094 L6.29891 7.25094 Z M4.50203 6.66984 C4.50203 6.66984 4.50203 6.17188 4.21141 5.86672 C4.21141 5.86672 3.92094 5.56156 3.45219 5.56156 C3.45219 5.56156 2.94437 5.56156 2.62688 5.84719 C2.62688 5.84719 2.30953 6.13281 2.23141 6.66984 L4.50203 6.66984 Z"/>
  <path id="GlDejaVuSans-Bold104" d="M6.33797 6.66984 L6.33797 10 L4.58016 10 L4.58016 9.45797 L4.58016 7.46094 C4.58016 7.46094 4.58016 6.74313 4.54828 6.47469 C4.54828 6.47469 4.51656 6.20609 4.43844 6.07906 C4.43844 6.07906 4.33594 5.90813 4.16016 5.81297 C4.16016 5.81297 3.98438 5.71781 3.75984 5.71781 C3.75984 5.71781 3.21297 5.71781 2.90047 6.14016 C2.90047 6.14016 2.58797 6.5625 2.58797 7.30953 L2.58797 10 L0.839844 10 L0.839844 2.40234 L2.58797 2.40234 L2.58797 5.33203 C2.58797 5.33203 2.98344 4.85344 3.42766 4.62641 C3.42766 4.62641 3.87203 4.39938 4.40922 4.39938 C4.40922 4.39938 5.35641 4.39938 5.84719 4.98047 C5.84719 4.98047 6.33797 5.56156 6.33797 6.66984 Z"/>
  <path id="GlDejaVuSans-Bold114" d="M4.90234 6.02047 C4.90234 6.02047 4.67281 5.91312 4.44578 5.86187 C4.44578 5.86187 4.21875 5.81047 3.98922 5.81047 C3.98922 5.81047 3.31547 5.81047 2.95172 6.24266 C2.95172 6.24266 2.58797 6.67484 2.58797 7.48047 L2.58797 10 L0.839844 10 L0.839844 4.53125 L2.58797 4.53125 L2.58797 5.42969 C2.58797 5.42969 2.92484 4.8925 3.36187 4.64594 C3.36187 4.64594 3.79891 4.39938 4.40922 4.39938 C4.40922 4.39938 4.49703 4.39938 4.59953 4.40672 C4.59953 4.40672 4.70219 4.41406 4.8975 4.43844 L4.90234 6.02047 Z"/>
  <path id="GlDejaVuSans-Bold73" d="M0.917969 2.71 L2.79781 2.71 L2.79781 10 L0.917969 10 L0.917969 2.71 Z"/>
  <path id="GlDejaVuSans-Bold110" d="M6.33797 6.66984 L6.33797 10 L4.58016 10 L4.58016 9.45797 L4.58016 7.45109 C4.58016 7.45109 4.58016 6.74313 4.54828 6.47469 C4.54828 6.47469 4.51656 6.20609 4.43844 6.07906 C4.43844 6.07906 4.33594 5.90813 4.16016 5.81297 C4.16016 5.81297 3.98438 5.71781 3.75984 5.71781 C3.75984 5.71781 3.21297 5.71781 2.90047 6.14016 C2.90047 6.14016 2.58797 6.5625 2.58797 7.30953 L2.58797 10 L0.839844 10 L0.839844 4.53125 L2.58797 4.53125 L2.58797 5.33203 C2.58797 5.33203 2.98344 4.85344 3.42766 4.62641 C3.42766 4.62641 3.87203 4.39938 4.40922 4.39938 C4.40922 4.39938 5.35641 4.39938 5.84719 4.98047 C5.84719 4.98047 6.33797 5.56156 6.33797 6.66984 Z"/>
  <path id="GlDejaVuSans-Bold102" d="M4.43844 2.40234 L4.43844 3.54984 L3.47172 3.54984 C3.47172 3.54984 3.10062 3.54984 2.95406 3.68406 C2.95406 3.68406 2.80766 3.81828 2.80766 4.15031 L2.80766 4.53125 L4.30172 4.53125 L4.30172 5.78125 L2.80766 5.78125 L2.80766 10 L1.05953 10 L1.05953 5.78125 L0.190469 5.78125 L0.190469 4.53125 L1.05953 4.53125 L1.05953 4.15031 C1.05953 4.15031 1.05953 3.25687 1.5575 2.82969 C1.5575 2.82969 2.05563 2.40234 3.10062 2.40234 L4.43844 2.40234 Z"/>
  <path id="GlDejaVuSans-Bold111" d="M3.44234 5.64938 C3.44234 5.64938 2.86141 5.64938 2.55609 6.06687 C2.55609 6.06687 2.25094 6.48438 2.25094 7.27047 C2.25094 7.27047 2.25094 8.05656 2.55609 8.47406 C2.55609 8.47406 2.86141 8.89156 3.44234 8.89156 C3.44234 8.89156 4.01375 8.89156 4.31641 8.47406 C4.31641 8.47406 4.61922 8.05656 4.61922 7.27047 C4.61922 7.27047 4.61922 6.48438 4.31641 6.06687 C4.31641 6.06687 4.01375 5.64938 3.44234 5.64938 L3.44234 5.64938 Z M3.44234 4.39938 C3.44234 4.39938 4.85359 4.39938 5.64703 5.16109 C5.64703 5.16109 6.44047 5.92281 6.44047 7.27047 C6.44047 7.27047 6.44047 8.61812 5.64703 9.37984 C5.64703 9.37984 4.85359 10.1416 3.44234 10.1416 C3.44234 10.1416 2.02641 10.1416 1.22797 9.37984 C1.22797 9.37984 0.429688 8.61812 0.429688 7.27047 C0.429688 7.27047 0.429688 5.92281 1.22797 5.16109 C1.22797 5.16109 2.02641 4.39938 3.44234 4.39938 Z"/>
  <path id="GlDejaVuSans-Bold109" d="M5.90828 5.43938 C5.90828 5.43938 6.24031 4.93156 6.69672 4.66547 C6.69672 4.66547 7.15328 4.39938 7.70016 4.39938 C7.70016 4.39938 8.64266 4.39938 9.13578 4.98047 C9.13578 4.98047 9.62891 5.56156 9.62891 6.66984 L9.62891 10 L7.87109 10 L7.87109 7.14844 C7.87109 7.14844 7.87594 7.085 7.87844 7.01672 C7.87844 7.01672 7.88094 6.94828 7.88094 6.82125 C7.88094 6.82125 7.88094 6.24016 7.71 5.97906 C7.71 5.97906 7.53906 5.71781 7.15828 5.71781 C7.15828 5.71781 6.66016 5.71781 6.38906 6.12797 C6.38906 6.12797 6.11813 6.53812 6.10844 7.31438 L6.10844 10 L4.35062 10 L4.35062 7.14844 C4.35062 7.14844 4.35062 6.24016 4.19437 5.97906 C4.19437 5.97906 4.03812 5.71781 3.63766 5.71781 C3.63766 5.71781 3.13484 5.71781 2.86141 6.13047 C2.86141 6.13047 2.58797 6.54297 2.58797 7.30953 L2.58797 10 L0.830156 10 L0.830156 4.53125 L2.58797 4.53125 L2.58797 5.33203 C2.58797 5.33203 2.91016 4.86813 3.32766 4.63375 C3.32766 4.63375 3.74516 4.39938 4.24812 4.39938 C4.24812 4.39938 4.81453 4.39938 5.24906 4.67281 C5.24906 4.67281 5.68359 4.94625 5.90828 5.43938 Z"/>
  <path id="GlDejaVuSans-Bold97" d="M3.29109 7.53906 C3.29109 7.53906 2.74422 7.53906 2.46828 7.72469 C2.46828 7.72469 2.19234 7.91016 2.19234 8.27141 C2.19234 8.27141 2.19234 8.60344 2.41453 8.79156 C2.41453 8.79156 2.63672 8.97953 3.03219 8.97953 C3.03219 8.97953 3.52547 8.97953 3.86234 8.62547 C3.86234 8.62547 4.19922 8.27141 4.19922 7.73922 L4.19922 7.53906 L3.29109 7.53906 L3.29109 7.53906 Z M5.96188 6.87984 L5.96188 10 L4.19922 10 L4.19922 9.18938 C4.19922 9.18938 3.84766 9.6875 3.40813 9.91453 C3.40813 9.91453 2.96875 10.1416 2.33891 10.1416 C2.33891 10.1416 1.48922 10.1416 0.959375 9.64594 C0.959375 9.64594 0.429688 9.15031 0.429688 8.35938 C0.429688 8.35938 0.429688 7.3975 1.09125 6.94828 C1.09125 6.94828 1.75297 6.49906 3.16891 6.49906 L4.19922 6.49906 L4.19922 6.36234 C4.19922 6.36234 4.19922 5.94719 3.87203 5.75437 C3.87203 5.75437 3.545 5.56156 2.85156 5.56156 C2.85156 5.56156 2.29 5.56156 1.80656 5.67391 C1.80656 5.67391 1.32328 5.78609 0.908281 6.01078 L0.908281 4.67766 C0.908281 4.67766 1.46969 4.54094 2.03609 4.47016 C2.03609 4.47016 2.6025 4.39938 3.16891 4.39938 C3.16891 4.39938 4.64844 4.39938 5.30516 4.98297 C5.30516 4.98297 5.96188 5.56641 5.96188 6.87984 Z"/>
  <path id="GlDejaVuSans-Bold116" d="M2.74906 2.97844 L2.74906 4.53125 L4.55078 4.53125 L4.55078 5.78125 L2.74906 5.78125 L2.74906 8.10063 C2.74906 8.10063 2.74906 8.48141 2.90031 8.61578 C2.90031 8.61578 3.05172 8.75 3.50094 8.75 L4.39938 8.75 L4.39938 10 L2.90047 10 C2.90047 10 1.86531 10 1.43312 9.56797 C1.43312 9.56797 1.00094 9.13578 1.00094 8.10063 L1.00094 5.78125 L0.131875 5.78125 L0.131875 4.53125 L1.00094 4.53125 L1.00094 2.97844 L2.74906 2.97844 Z"/>
  <path id="GlDejaVuSans-Bold105" d="M0.839844 4.53125 L2.58797 4.53125 L2.58797 10 L0.839844 10 L0.839844 4.53125 L0.839844 4.53125 Z M0.839844 2.40234 L2.58797 2.40234 L2.58797 3.82812 L0.839844 3.82812 L0.839844 2.40234 Z"/>
  <path id="GlDejaVuSans-Bold117" d="M0.78125 7.87109 L0.78125 4.53125 L2.53906 4.53125 L2.53906 5.07812 C2.53906 5.07812 2.53906 5.5225 2.53422 6.19391 C2.53422 6.19391 2.52937 6.86516 2.52937 7.08984 C2.52937 7.08984 2.52937 7.74906 2.56344 8.03953 C2.56344 8.03953 2.59766 8.33 2.68063 8.46187 C2.68063 8.46187 2.78812 8.63281 2.96141 8.72563 C2.96141 8.72563 3.13484 8.81828 3.35938 8.81828 C3.35938 8.81828 3.90625 8.81828 4.21875 8.39844 C4.21875 8.39844 4.53125 7.97844 4.53125 7.23141 L4.53125 4.53125 L6.27937 4.53125 L6.27937 10 L4.53125 10 L4.53125 9.20891 C4.53125 9.20891 4.13578 9.6875 3.69391 9.91453 C3.69391 9.91453 3.25203 10.1416 2.71969 10.1416 C2.71969 10.1416 1.7725 10.1416 1.27687 9.56062 C1.27687 9.56062 0.78125 8.97953 0.78125 7.87109 Z"/>
  <path id="GlDejaVuSans-Bold112" d="M2.58797 9.20891 L2.58797 12.0802 L0.839844 12.0802 L0.839844 4.53125 L2.58797 4.53125 L2.58797 5.33203 C2.58797 5.33203 2.94922 4.85344 3.38859 4.62641 C3.38859 4.62641 3.82812 4.39938 4.39938 4.39938 C4.39938 4.39938 5.41016 4.39938 6.05953 5.20266 C6.05953 5.20266 6.70906 6.00578 6.70906 7.27047 C6.70906 7.27047 6.70906 8.53516 6.05953 9.33844 C6.05953 9.33844 5.41016 10.1416 4.39938 10.1416 C4.39938 10.1416 3.82812 10.1416 3.38859 9.91453 C3.38859 9.91453 2.94922 9.6875 2.58797 9.20891 L2.58797 9.20891 Z M3.75 5.66891 C3.75 5.66891 3.18844 5.66891 2.88813 6.08156 C2.88813 6.08156 2.58797 6.49406 2.58797 7.27047 C2.58797 7.27047 2.58797 8.04688 2.88813 8.45953 C2.88813 8.45953 3.18844 8.87203 3.75 8.87203 C3.75 8.87203 4.31156 8.87203 4.60688 8.46187 C4.60688 8.46187 4.90234 8.05172 4.90234 7.27047 C4.90234 7.27047 4.90234 6.48922 4.60688 6.07906 C4.60688 6.07906 4.31156 5.66891 3.75 5.66891 Z"/>
  <path id="GlDejaVuSans-Bold58" d="M1.11813 4.53125 L2.88094 4.53125 L2.88094 6.42094 L1.11813 6.42094 L1.11813 4.53125 L1.11813 4.53125 Z M1.11813 8.11031 L2.88094 8.11031 L2.88094 10 L1.11813 10 L1.11813 8.11031 Z"/>
  <path id="GlDejaVuSans-Bold47" d="M2.56844 2.71 L3.65234 2.71 L1.07906 10.9278 L0 10.9278 L2.56844 2.71 Z"/>
  <path id="GlDejaVuSans-Bold46" d="M1.02047 8.11031 L2.77828 8.11031 L2.77828 10 L1.02047 10 L1.02047 8.11031 Z"/>
  <path id="GlDejaVuSans-Bold107" d="M0.839844 2.40234 L2.58797 2.40234 L2.58797 6.53812 L4.59969 4.53125 L6.63094 4.53125 L3.96 7.04094 L6.84078 10 L4.72172 10 L2.58797 7.71969 L2.58797 10 L0.839844 10 L0.839844 2.40234 Z"/>
  <clipPath id="Clip3">
   <path d="M0 0 L101.07 0 L101.07 74.5173 L0 74.5173 L0 0 Z" transform="translate(185.024, 184.361)"/>
  </clipPath>
  <clipPath id="Clip4">
   <path d="M0 0 L101.07 0 L101.07 74.5173 L0 74.5173 L0 0 Z" transform="translate(185.024, 184.361)"/>
  </clipPath>
 </defs>
 <g id="Background">
  <path style="fill:#f7b103; fill-rule:evenodd;stroke:none;" id="Hintergrund gelb (unten)" d="M5.84461 0 L277.619 6.60805e-13 L279.894 0.459299 L281.752 1.71185 L283.004 3.56963 L283.464 5.84461 L283.464 43.8346 L283.464 43.8346 L283.464 49.6792 L4.38342e-09 49.6792 L4.38348e-09 43.8346 L0 43.8346 L0 5.84461 L0.459299 3.56963 L1.71185 1.71185 L3.56963 0.459299 L5.84461 0 Z" transform="translate(296.22, 296.22) rotate(180)"/>
  <path style="fill:#d91267; fill-rule:evenodd;stroke:none;" id="Hintergrund magent (oben)" d="M5.84461 0 L277.619 0 L279.894 0.459299 L281.752 1.71185 L283.004 3.56963 L283.464 5.84461 L283.464 43.8346 L283.464 43.8346 L283.464 49.6792 L4.38346e-09 49.6792 L4.38346e-09 43.8346 L0 43.8346 L0 5.84461 L0.459299 3.56963 L1.71185 1.71185 L3.56963 0.459299 L5.84461 0 Z" transform="translate(12.7559, 13.0481)"/>
  <path style="fill:none;stroke:#0c0801; stroke-width:1.41732; stroke-linecap:butt; stroke-linejoin:miter; stroke-dasharray:none;" id="Aussenrahmen" d="M5.84461 0 L277.619 0 C280.847 0 283.464 2.61672 283.464 5.84461 L283.464 277.619 C283.464 280.847 280.847 283.464 277.619 283.464 L5.84461 283.464 C2.61672 283.464 0 280.847 0 277.619 L0 5.84461 C0 2.61672 2.61672 0 5.84461 0 Z" transform="translate(12.7559, 12.7559)"/>
  <g id="Wifi-Symbol" clip-path="url(#Clip0)">
   <path style="fill:#0c0801; fill-rule:evenodd;stroke:none;" id="Zeile 4" d="M81.411 2.4929 C116.033 0 151.456 12.9509 176.167 37.3429 C179.404 40.6753 178.982 46.5046 175.567 49.5585 C172.429 53.256 166.146 53.3214 162.909 49.7196 C141.771 29.3734 111.925 18.3713 82.6204 20.5595 C58.2754 22.1255 34.6918 32.6097 17.0261 49.4018 C15.4551 51.0073 13.4489 52.3254 11.1387 52.4384 C5.3518 53.1169 0 47.07 1.24892 41.4106 C1.60133 39.379 2.9064 37.6867 4.39876 36.3335 C25.0804 16.5355 52.8453 4.37643 81.411 2.4929 L81.411 2.4929 Z" transform="translate(64.7857, 84.3699)"/>
   <path style="fill:#0c0801; fill-rule:evenodd;stroke:none;" id="Zeile 3" d="M57.3966 2.88437 C83.9214 0 111.465 9.77513 130.235 28.7249 C133.168 32.0747 132.802 37.552 129.543 40.5623 C126.571 44.199 120.58 44.6073 117.212 41.3098 C105.195 29.4641 88.9469 21.9427 72.0993 20.7114 C51.6396 19.0147 30.7366 26.7756 16.1688 41.1882 C12.8096 44.7381 6.55233 44.3341 3.52883 40.5574 C0.269659 37.4821 0 31.8566 3.1284 28.5985 C17.5658 14.156 37.0895 4.96808 57.3966 2.88437 L57.3966 2.88437 Z" transform="translate(87.9431, 117.924)"/>
   <path style="fill:#0c0801; fill-rule:evenodd;stroke:none;" id="Zeile 2" d="M40.1266 1.66156 C56.8654 0 74.1704 6.40804 85.8182 18.528 C89.0075 21.847 88.6379 27.5593 85.2785 30.6305 C82.2284 34.3111 76.1149 34.5594 72.7997 31.1092 C66.234 24.371 57.1395 20.1116 47.7236 19.5983 C37.0374 18.8368 26.2245 23.0569 18.636 30.5652 C16.7694 32.6625 13.9975 33.9499 11.1605 33.6154 C4.57311 33.1537 0 24.3617 4.53802 19.0849 C13.7016 9.14872 26.7161 2.99295 40.1266 1.66156 Z" transform="translate(109.133, 152.639)"/>
   <path style="fill:#0c0801; fill-rule:evenodd;stroke:none;" id="Zeile 1" d="M18.0228 1.80967 C28.8095 0 39.7569 8.90539 40.1053 19.8413 C41.106 30.5648 31.6376 40.7406 20.8734 40.505 C11.1964 40.8403 2.2282 32.8139 1.37969 23.1914 C0 13.0898 7.90173 2.9756 18.0228 1.80967 L18.0228 1.80967 Z" transform="translate(133.818, 183.765)"/>
   <path style="fill:url(#Grad0); fill-rule:evenodd;stroke:none;" id="Zeile 4 (Schatten)" d="M85.6577 0 C49.9322 0 18.4598 14.2819 0 35.9651 C1.90465 38.3259 4.82979 39.8671 7.89772 39.5074 C10.2079 39.3944 12.2229 38.0842 13.794 36.4788 C31.4596 19.6866 55.0379 9.19155 79.3829 7.62567 C108.687 5.43745 138.52 16.4302 159.658 36.7763 C162.818 40.2921 168.868 40.3239 172.073 36.8844 C153.726 14.6866 121.886 0 85.6577 0 Z" transform="translate(68.0297, 97.2999)"/>
   <path style="fill:url(#Grad1); fill-rule:evenodd; fill-opacity:0.5;stroke:none;" id="Zeile 3 (Schatten)" d="M61.9105 0 C33.4933 0 9.28512 11.6392 0 27.9607 C3.26063 30.6281 8.51528 30.5958 11.4949 27.4469 C26.0628 13.0344 46.9684 5.28003 67.4281 6.97667 C84.2754 8.20798 100.525 15.7096 112.542 27.5551 C115.536 30.4862 120.59 30.4688 123.767 27.8796 C114.447 11.6017 90.2798 0 61.9105 0 L61.9105 0 Z" transform="translate(92.6154, 131.67)"/>
   <path style="fill:url(#Grad2); fill-rule:evenodd; fill-opacity:0.5;stroke:none;" id="Zeile 2 (Schatten)" d="M39.5427 4.32662e-05 C22.4117 4.32662e-05 7.5379 7.17136 0 17.7121 C1.49944 19.3544 3.49999 20.5012 5.76101 20.6596 C8.59797 20.9943 11.3865 19.7014 13.2531 17.604 C20.8415 10.0957 31.6423 5.86364 42.3284 6.62518 C51.7444 7.13853 60.8355 11.4066 67.4011 18.1448 C70.5532 21.4252 76.2367 21.3495 79.41 18.1718 C71.9787 7.38306 56.9189 0 39.5427 0 L39.5427 4.32662e-05 Z" transform="translate(114.523, 165.606)"/>
   <path style="fill:url(#Grad3); fill-rule:evenodd; fill-opacity:0.5;stroke:none;" id="Zeile 1 (Schatten)" d="M17.4183 2.84217e-14 C10.0566 2.84217e-14 3.61713 4.39467 0 10.9788 C3.08078 17.8678 10.3036 22.8728 17.9862 22.6065 C25.3118 22.7669 32.0354 18.1107 35.2693 11.7359 C31.743 4.72497 25.0639 0 17.4183 0 L17.4183 2.84217e-14 Z" transform="translate(136.702, 201.653)"/>
  </g>
  <g id="Text oben" clip-path="url(#Clip1)">
   <path style="fill:none;stroke:#0c0801; stroke-opacity:0.1; stroke-width:3.40157; stroke-linecap:butt; stroke-linejoin:round; stroke-dasharray:none;" id="Freifunk Erfurt (Schatten 3)" d="M0 0.90589 L14.984 0.90589 L14.984 5.0973 L5.55816 5.0973 L5.55816 9.11289 L14.4295 9.11289 L14.4295 13.3044 L5.55816 13.3044 L5.55816 22.4309 L0 22.4309 L0 0.90589 Z M30.1438 10.6814 C29.6931 10.465 29.2423 10.3073 28.7915 10.2081 C28.3407 10.109 27.89 10.0594 27.4391 10.0594 C26.1138 10.0594 25.0928 10.4853 24.3761 11.3371 C23.6593 12.1888 23.301 13.408 23.301 14.9944 L23.301 22.4309 L18.135 22.4309 L18.135 6.28712 L23.301 6.28712 L23.301 8.93715 C23.9681 7.88257 24.7322 7.11188 25.5932 6.62514 C26.4542 6.13839 27.4843 5.89502 28.6833 5.89502 C28.8546 5.89502 29.0417 5.90178 29.2446 5.9153 C29.4473 5.92882 29.7427 5.95812 30.1303 6.00318 L30.1438 10.6814 Z M48.7793 14.3184 L48.7793 15.7786 L36.7027 15.7786 C36.829 16.9955 37.2663 17.9059 38.0145 18.5097 C38.7629 19.1137 39.8132 19.4157 41.1656 19.4157 C42.2474 19.4157 43.3586 19.2557 44.4991 18.9357 C45.6396 18.6157 46.8093 18.1268 48.0084 17.4687 L48.0084 21.4438 C46.7913 21.9125 45.5718 22.2641 44.3503 22.4984 C43.1286 22.7327 41.9048 22.8499 40.6787 22.8499 C37.7576 22.8499 35.4878 22.1063 33.8696 20.619 C32.2513 19.1318 31.4421 17.0495 31.4421 14.3725 C31.4421 11.7405 32.2377 9.66956 33.829 8.15973 C35.4203 6.64993 37.6088 5.89502 40.3947 5.89502 C42.9371 5.89502 44.9701 6.65893 46.4938 8.18677 C48.0174 9.71464 48.7793 11.7584 48.7793 14.3184 Z M43.4645 12.6013 C43.4645 11.6188 43.1782 10.8278 42.6058 10.2284 C42.0333 9.62897 41.2872 9.32923 40.3676 9.32923 C39.3669 9.32923 38.5532 9.60873 37.9266 10.1675 C37.3001 10.7264 36.9101 11.5376 36.7569 12.6013 L43.4645 12.6013 Z M52.5928 6.28712 L57.7588 6.28712 L57.7588 22.4309 L52.5928 22.4309 L52.5928 6.28712 Z M52.5928 0 L57.7588 0 L57.7588 4.20494 L52.5928 4.20494 L52.5928 0 Z M73.2973 0 L73.2973 3.38017 L70.4438 3.38017 C69.7136 3.38017 69.2041 3.51312 68.9157 3.77903 C68.6272 4.04494 68.483 4.50238 68.483 5.15138 L68.483 6.28712 L72.9052 6.28712 L72.9052 9.97822 L68.483 9.97822 L68.483 22.4309 L63.3169 22.4309 L63.3169 9.97822 L60.7611 9.97822 L60.7611 6.28712 L63.3169 6.28712 L63.3169 5.15138 C63.3169 3.39369 63.8084 2.09571 64.7911 1.25742 C65.7737 0.419141 67.2929 0 69.3485 0 L73.2973 0 Z M75.2988 16.1437 L75.2988 6.28712 L80.4918 6.28712 L80.4918 7.89608 C80.4918 8.7704 80.485 9.86781 80.4715 11.1884 C80.458 12.5088 80.4512 13.3901 80.4512 13.8317 C80.4512 15.1296 80.485 16.0648 80.5527 16.6373 C80.6203 17.2095 80.7352 17.6264 80.8976 17.8879 C81.1139 18.2214 81.3934 18.4806 81.736 18.6653 C82.0785 18.8502 82.4708 18.9424 82.9126 18.9424 C83.9854 18.9424 84.8306 18.5302 85.4482 17.7053 C86.0657 16.8806 86.3746 15.729 86.3746 14.2509 L86.3746 6.28712 L91.527 6.28712 L91.527 22.4309 L86.3746 22.4309 L86.3746 20.0918 C85.5902 21.0382 84.763 21.7345 83.893 22.1807 C83.023 22.6268 82.065 22.8499 81.0193 22.8499 C79.153 22.8499 77.733 22.2776 76.7594 21.1328 C75.7857 19.9881 75.2988 18.325 75.2988 16.1437 Z M112.65 12.6013 L112.65 22.4309 L107.457 22.4309 L107.457 20.8353 L107.457 14.8999 C107.457 13.5117 107.427 12.5517 107.363 12.0199 C107.3 11.488 107.191 11.1005 107.039 10.8571 C106.84 10.5145 106.568 10.251 106.22 10.0661 C105.874 9.8814 105.479 9.78897 105.037 9.78897 C103.965 9.78897 103.118 10.2036 102.502 11.0329 C101.884 11.8621 101.575 13.0114 101.575 14.4807 L101.575 22.4309 L96.4093 22.4309 L96.4093 6.28712 L101.575 6.28712 L101.575 8.65323 C102.36 7.70679 103.188 7.01048 104.063 6.56429 C104.938 6.11811 105.902 5.89502 106.957 5.89502 C108.823 5.89502 110.239 6.46739 111.204 7.61214 C112.169 8.7569 112.65 10.42 112.65 12.6013 Z M117.357 0 L122.522 0 L122.522 12.2092 L128.474 6.28712 L134.464 6.28712 L126.58 13.6965 L135.086 22.4309 L128.825 22.4309 L122.522 15.6975 L122.522 22.4309 L117.357 22.4309 L117.357 0 Z M147.392 0.90589 L162.376 0.90589 L162.376 5.0973 L152.951 5.0973 L152.951 9.11289 L161.822 9.11289 L161.822 13.3044 L152.951 13.3044 L152.951 18.2393 L162.701 18.2393 L162.701 22.4309 L147.392 22.4309 L147.392 0.90589 Z M179.268 10.6814 C178.816 10.465 178.365 10.3073 177.915 10.2081 C177.464 10.109 177.014 10.0594 176.562 10.0594 C175.238 10.0594 174.216 10.4853 173.5 11.3371 C172.783 12.1888 172.424 13.408 172.424 14.9944 L172.424 22.4309 L167.258 22.4309 L167.258 6.28712 L172.424 6.28712 L172.424 8.93715 C173.092 7.88257 173.855 7.11188 174.717 6.62514 C175.578 6.13839 176.608 5.89502 177.808 5.89502 C177.978 5.89502 178.165 5.90178 178.369 5.9153 C178.571 5.92882 178.865 5.95812 179.253 6.00318 L179.268 10.6814 Z M192.398 0 L192.398 3.38017 L189.545 3.38017 C188.815 3.38017 188.306 3.51312 188.017 3.77903 C187.728 4.04494 187.584 4.50238 187.584 5.15138 L187.584 6.28712 L192.007 6.28712 L192.007 9.97822 L187.584 9.97822 L187.584 22.4309 L182.419 22.4309 L182.419 9.97822 L179.862 9.97822 L179.862 6.28712 L182.419 6.28712 L182.419 5.15138 C182.419 3.39369 182.91 2.09571 183.892 1.25742 C184.875 0.419141 186.394 0 188.45 0 L192.398 0 Z M194.399 16.1437 L194.399 6.28712 L199.593 6.28712 L199.593 7.89608 C199.593 8.7704 199.587 9.86781 199.573 11.1884 C199.559 12.5088 199.552 13.3901 199.552 13.8317 C199.552 15.1296 199.587 16.0648 199.654 16.6373 C199.722 17.2095 199.837 17.6264 199.998 17.8879 C200.215 18.2214 200.494 18.4806 200.838 18.6653 C201.18 18.8502 201.573 18.9424 202.014 18.9424 C203.087 18.9424 203.931 18.5302 204.55 17.7053 C205.166 16.8806 205.476 15.729 205.476 14.2509 L205.476 6.28712 L210.628 6.28712 L210.628 22.4309 L205.476 22.4309 L205.476 20.0918 C204.691 21.0382 203.864 21.7345 202.994 22.1807 C202.124 22.6268 201.166 22.8499 200.121 22.8499 C198.254 22.8499 196.835 22.2776 195.861 21.1328 C194.887 19.9881 194.399 18.325 194.399 16.1437 Z M227.519 10.6814 C227.068 10.465 226.617 10.3073 226.166 10.2081 C225.716 10.109 225.265 10.0594 224.815 10.0594 C223.489 10.0594 222.468 10.4853 221.752 11.3371 C221.034 12.1888 220.677 13.408 220.677 14.9944 L220.677 22.4309 L215.511 22.4309 L215.511 6.28712 L220.677 6.28712 L220.677 8.93715 C221.344 7.88257 222.108 7.11188 222.968 6.62514 C223.829 6.13839 224.859 5.89502 226.059 5.89502 C226.229 5.89502 226.418 5.90178 226.62 5.9153 C226.822 5.92882 227.118 5.95812 227.506 6.00318 L227.519 10.6814 Z M235.66 1.7036 L235.66 6.28712 L240.989 6.28712 L240.989 9.97822 L235.66 9.97822 L235.66 16.8197 C235.66 17.5679 235.812 18.0749 236.114 18.3408 C236.416 18.6068 237.009 18.7396 237.891 18.7396 L240.543 18.7396 L240.543 22.4309 L236.107 22.4309 C234.069 22.4309 232.626 22.0049 231.779 21.1531 C230.932 20.3013 230.508 18.8569 230.508 16.8197 L230.508 9.97822 L227.939 9.97822 L227.939 6.28712 L230.508 6.28712 L230.508 1.7036 L235.66 1.7036 Z" transform="translate(33.9933, 26.4628)"/>
   <path style="fill:none;stroke:#0c0801; stroke-opacity:0.1; stroke-width:2.26772; stroke-linecap:butt; stroke-linejoin:round; stroke-dasharray:none;" id="Freifunk Erfurt (Schatten 2)" d="M0 0.90589 L14.984 0.90589 L14.984 5.0973 L5.55816 5.0973 L5.55816 9.11289 L14.4295 9.11289 L14.4295 13.3044 L5.55816 13.3044 L5.55816 22.4309 L0 22.4309 L0 0.90589 Z M30.1438 10.6814 C29.6931 10.465 29.2423 10.3073 28.7915 10.2081 C28.3407 10.109 27.89 10.0594 27.4391 10.0594 C26.1138 10.0594 25.0928 10.4853 24.3761 11.3371 C23.6593 12.1888 23.301 13.408 23.301 14.9944 L23.301 22.4309 L18.135 22.4309 L18.135 6.28712 L23.301 6.28712 L23.301 8.93715 C23.9681 7.88257 24.7322 7.11188 25.5932 6.62514 C26.4542 6.13839 27.4843 5.89502 28.6833 5.89502 C28.8546 5.89502 29.0417 5.90178 29.2446 5.9153 C29.4473 5.92882 29.7427 5.95812 30.1303 6.00318 L30.1438 10.6814 Z M48.7793 14.3184 L48.7793 15.7786 L36.7027 15.7786 C36.829 16.9955 37.2663 17.9059 38.0145 18.5097 C38.7629 19.1137 39.8132 19.4157 41.1656 19.4157 C42.2474 19.4157 43.3586 19.2557 44.4991 18.9357 C45.6396 18.6157 46.8093 18.1268 48.0084 17.4687 L48.0084 21.4438 C46.7913 21.9125 45.5718 22.2641 44.3503 22.4984 C43.1286 22.7327 41.9048 22.8499 40.6787 22.8499 C37.7576 22.8499 35.4878 22.1063 33.8696 20.619 C32.2513 19.1318 31.4421 17.0495 31.4421 14.3725 C31.4421 11.7405 32.2377 9.66956 33.829 8.15973 C35.4203 6.64993 37.6088 5.89502 40.3947 5.89502 C42.9371 5.89502 44.9701 6.65893 46.4938 8.18677 C48.0174 9.71464 48.7793 11.7584 48.7793 14.3184 Z M43.4645 12.6013 C43.4645 11.6188 43.1782 10.8278 42.6058 10.2284 C42.0333 9.62897 41.2872 9.32923 40.3676 9.32923 C39.3669 9.32923 38.5532 9.60873 37.9266 10.1675 C37.3001 10.7264 36.9101 11.5376 36.7569 12.6013 L43.4645 12.6013 Z M52.5928 6.28712 L57.7588 6.28712 L57.7588 22.4309 L52.5928 22.4309 L52.5928 6.28712 Z M52.5928 0 L57.7588 0 L57.7588 4.20494 L52.5928 4.20494 L52.5928 0 Z M73.2973 0 L73.2973 3.38017 L70.4438 3.38017 C69.7136 3.38017 69.2041 3.51312 68.9157 3.77903 C68.6272 4.04494 68.483 4.50238 68.483 5.15138 L68.483 6.28712 L72.9052 6.28712 L72.9052 9.97822 L68.483 9.97822 L68.483 22.4309 L63.3169 22.4309 L63.3169 9.97822 L60.7611 9.97822 L60.7611 6.28712 L63.3169 6.28712 L63.3169 5.15138 C63.3169 3.39369 63.8084 2.09571 64.7911 1.25742 C65.7737 0.419141 67.2929 0 69.3485 0 L73.2973 0 Z M75.2988 16.1437 L75.2988 6.28712 L80.4918 6.28712 L80.4918 7.89608 C80.4918 8.7704 80.485 9.86781 80.4715 11.1884 C80.458 12.5088 80.4512 13.3901 80.4512 13.8317 C80.4512 15.1296 80.485 16.0648 80.5527 16.6373 C80.6203 17.2095 80.7352 17.6264 80.8976 17.8879 C81.1139 18.2214 81.3934 18.4806 81.736 18.6653 C82.0785 18.8502 82.4708 18.9424 82.9126 18.9424 C83.9854 18.9424 84.8306 18.5302 85.4482 17.7053 C86.0657 16.8806 86.3746 15.729 86.3746 14.2509 L86.3746 6.28712 L91.527 6.28712 L91.527 22.4309 L86.3746 22.4309 L86.3746 20.0918 C85.5902 21.0382 84.763 21.7345 83.893 22.1807 C83.023 22.6268 82.065 22.8499 81.0193 22.8499 C79.153 22.8499 77.733 22.2776 76.7594 21.1328 C75.7857 19.9881 75.2988 18.325 75.2988 16.1437 Z M112.65 12.6013 L112.65 22.4309 L107.457 22.4309 L107.457 20.8353 L107.457 14.8999 C107.457 13.5117 107.427 12.5517 107.363 12.0199 C107.3 11.488 107.191 11.1005 107.039 10.8571 C106.84 10.5145 106.568 10.251 106.22 10.0661 C105.874 9.8814 105.479 9.78897 105.037 9.78897 C103.965 9.78897 103.118 10.2036 102.502 11.0329 C101.884 11.8621 101.575 13.0114 101.575 14.4807 L101.575 22.4309 L96.4093 22.4309 L96.4093 6.28712 L101.575 6.28712 L101.575 8.65323 C102.36 7.70679 103.188 7.01048 104.063 6.56429 C104.938 6.11811 105.902 5.89502 106.957 5.89502 C108.823 5.89502 110.239 6.46739 111.204 7.61214 C112.169 8.7569 112.65 10.42 112.65 12.6013 Z M117.357 0 L122.522 0 L122.522 12.2092 L128.474 6.28712 L134.464 6.28712 L126.58 13.6965 L135.086 22.4309 L128.825 22.4309 L122.522 15.6975 L122.522 22.4309 L117.357 22.4309 L117.357 0 Z M147.392 0.90589 L162.376 0.90589 L162.376 5.0973 L152.951 5.0973 L152.951 9.11289 L161.822 9.11289 L161.822 13.3044 L152.951 13.3044 L152.951 18.2393 L162.701 18.2393 L162.701 22.4309 L147.392 22.4309 L147.392 0.90589 Z M179.268 10.6814 C178.816 10.465 178.365 10.3073 177.915 10.2081 C177.464 10.109 177.014 10.0594 176.562 10.0594 C175.238 10.0594 174.216 10.4853 173.5 11.3371 C172.783 12.1888 172.424 13.408 172.424 14.9944 L172.424 22.4309 L167.258 22.4309 L167.258 6.28712 L172.424 6.28712 L172.424 8.93715 C173.092 7.88257 173.855 7.11188 174.717 6.62514 C175.578 6.13839 176.608 5.89502 177.808 5.89502 C177.978 5.89502 178.165 5.90178 178.369 5.9153 C178.571 5.92882 178.865 5.95812 179.253 6.00318 L179.268 10.6814 Z M192.398 0 L192.398 3.38017 L189.545 3.38017 C188.815 3.38017 188.306 3.51312 188.017 3.77903 C187.728 4.04494 187.584 4.50238 187.584 5.15138 L187.584 6.28712 L192.007 6.28712 L192.007 9.97822 L187.584 9.97822 L187.584 22.4309 L182.419 22.4309 L182.419 9.97822 L179.862 9.97822 L179.862 6.28712 L182.419 6.28712 L182.419 5.15138 C182.419 3.39369 182.91 2.09571 183.892 1.25742 C184.875 0.419141 186.394 0 188.45 0 L192.398 0 Z M194.399 16.1437 L194.399 6.28712 L199.593 6.28712 L199.593 7.89608 C199.593 8.7704 199.587 9.86781 199.573 11.1884 C199.559 12.5088 199.552 13.3901 199.552 13.8317 C199.552 15.1296 199.587 16.0648 199.654 16.6373 C199.722 17.2095 199.837 17.6264 199.998 17.8879 C200.215 18.2214 200.494 18.4806 200.838 18.6653 C201.18 18.8502 201.573 18.9424 202.014 18.9424 C203.087 18.9424 203.931 18.5302 204.55 17.7053 C205.166 16.8806 205.476 15.729 205.476 14.2509 L205.476 6.28712 L210.628 6.28712 L210.628 22.4309 L205.476 22.4309 L205.476 20.0918 C204.691 21.0382 203.864 21.7345 202.994 22.1807 C202.124 22.6268 201.166 22.8499 200.121 22.8499 C198.254 22.8499 196.835 22.2776 195.861 21.1328 C194.887 19.9881 194.399 18.325 194.399 16.1437 Z M227.519 10.6814 C227.068 10.465 226.617 10.3073 226.166 10.2081 C225.716 10.109 225.265 10.0594 224.815 10.0594 C223.489 10.0594 222.468 10.4853 221.752 11.3371 C221.034 12.1888 220.677 13.408 220.677 14.9944 L220.677 22.4309 L215.511 22.4309 L215.511 6.28712 L220.677 6.28712 L220.677 8.93715 C221.344 7.88257 222.108 7.11188 222.968 6.62514 C223.829 6.13839 224.859 5.89502 226.059 5.89502 C226.229 5.89502 226.418 5.90178 226.62 5.9153 C226.822 5.92882 227.118 5.95812 227.506 6.00318 L227.519 10.6814 Z M235.66 1.7036 L235.66 6.28712 L240.989 6.28712 L240.989 9.97822 L235.66 9.97822 L235.66 16.8197 C235.66 17.5679 235.812 18.0749 236.114 18.3408 C236.416 18.6068 237.009 18.7396 237.891 18.7396 L240.543 18.7396 L240.543 22.4309 L236.107 22.4309 C234.069 22.4309 232.626 22.0049 231.779 21.1531 C230.932 20.3013 230.508 18.8569 230.508 16.8197 L230.508 9.97822 L227.939 9.97822 L227.939 6.28712 L230.508 6.28712 L230.508 1.7036 L235.66 1.7036 Z" transform="translate(33.9933, 26.4628)"/>
   <path style="fill:none;stroke:#0c0801; stroke-opacity:0.1; stroke-width:1.13386; stroke-linecap:butt; stroke-linejoin:round; stroke-dasharray:none;" id="Freifunk Erfurt (Schatten 1)" d="M0 0.90589 L14.984 0.90589 L14.984 5.0973 L5.55816 5.0973 L5.55816 9.11289 L14.4295 9.11289 L14.4295 13.3044 L5.55816 13.3044 L5.55816 22.4309 L0 22.4309 L0 0.90589 Z M30.1438 10.6814 C29.6931 10.465 29.2423 10.3073 28.7915 10.2081 C28.3407 10.109 27.89 10.0594 27.4391 10.0594 C26.1138 10.0594 25.0928 10.4853 24.3761 11.3371 C23.6593 12.1888 23.301 13.408 23.301 14.9944 L23.301 22.4309 L18.135 22.4309 L18.135 6.28712 L23.301 6.28712 L23.301 8.93715 C23.9681 7.88257 24.7322 7.11188 25.5932 6.62514 C26.4542 6.13839 27.4843 5.89502 28.6833 5.89502 C28.8546 5.89502 29.0417 5.90178 29.2446 5.9153 C29.4473 5.92882 29.7427 5.95812 30.1303 6.00318 L30.1438 10.6814 Z M48.7793 14.3184 L48.7793 15.7786 L36.7027 15.7786 C36.829 16.9955 37.2663 17.9059 38.0145 18.5097 C38.7629 19.1137 39.8132 19.4157 41.1656 19.4157 C42.2474 19.4157 43.3586 19.2557 44.4991 18.9357 C45.6396 18.6157 46.8093 18.1268 48.0084 17.4687 L48.0084 21.4438 C46.7913 21.9125 45.5718 22.2641 44.3503 22.4984 C43.1286 22.7327 41.9048 22.8499 40.6787 22.8499 C37.7576 22.8499 35.4878 22.1063 33.8696 20.619 C32.2513 19.1318 31.4421 17.0495 31.4421 14.3725 C31.4421 11.7405 32.2377 9.66956 33.829 8.15973 C35.4203 6.64993 37.6088 5.89502 40.3947 5.89502 C42.9371 5.89502 44.9701 6.65893 46.4938 8.18677 C48.0174 9.71464 48.7793 11.7584 48.7793 14.3184 Z M43.4645 12.6013 C43.4645 11.6188 43.1782 10.8278 42.6058 10.2284 C42.0333 9.62897 41.2872 9.32923 40.3676 9.32923 C39.3669 9.32923 38.5532 9.60873 37.9266 10.1675 C37.3001 10.7264 36.9101 11.5376 36.7569 12.6013 L43.4645 12.6013 Z M52.5928 6.28712 L57.7588 6.28712 L57.7588 22.4309 L52.5928 22.4309 L52.5928 6.28712 Z M52.5928 0 L57.7588 0 L57.7588 4.20494 L52.5928 4.20494 L52.5928 0 Z M73.2973 0 L73.2973 3.38017 L70.4438 3.38017 C69.7136 3.38017 69.2041 3.51312 68.9157 3.77903 C68.6272 4.04494 68.483 4.50238 68.483 5.15138 L68.483 6.28712 L72.9052 6.28712 L72.9052 9.97822 L68.483 9.97822 L68.483 22.4309 L63.3169 22.4309 L63.3169 9.97822 L60.7611 9.97822 L60.7611 6.28712 L63.3169 6.28712 L63.3169 5.15138 C63.3169 3.39369 63.8084 2.09571 64.7911 1.25742 C65.7737 0.419141 67.2929 0 69.3485 0 L73.2973 0 Z M75.2988 16.1437 L75.2988 6.28712 L80.4918 6.28712 L80.4918 7.89608 C80.4918 8.7704 80.485 9.86781 80.4715 11.1884 C80.458 12.5088 80.4512 13.3901 80.4512 13.8317 C80.4512 15.1296 80.485 16.0648 80.5527 16.6373 C80.6203 17.2095 80.7352 17.6264 80.8976 17.8879 C81.1139 18.2214 81.3934 18.4806 81.736 18.6653 C82.0785 18.8502 82.4708 18.9424 82.9126 18.9424 C83.9854 18.9424 84.8306 18.5302 85.4482 17.7053 C86.0657 16.8806 86.3746 15.729 86.3746 14.2509 L86.3746 6.28712 L91.527 6.28712 L91.527 22.4309 L86.3746 22.4309 L86.3746 20.0918 C85.5902 21.0382 84.763 21.7345 83.893 22.1807 C83.023 22.6268 82.065 22.8499 81.0193 22.8499 C79.153 22.8499 77.733 22.2776 76.7594 21.1328 C75.7857 19.9881 75.2988 18.325 75.2988 16.1437 Z M112.65 12.6013 L112.65 22.4309 L107.457 22.4309 L107.457 20.8353 L107.457 14.8999 C107.457 13.5117 107.427 12.5517 107.363 12.0199 C107.3 11.488 107.191 11.1005 107.039 10.8571 C106.84 10.5145 106.568 10.251 106.22 10.0661 C105.874 9.8814 105.479 9.78897 105.037 9.78897 C103.965 9.78897 103.118 10.2036 102.502 11.0329 C101.884 11.8621 101.575 13.0114 101.575 14.4807 L101.575 22.4309 L96.4093 22.4309 L96.4093 6.28712 L101.575 6.28712 L101.575 8.65323 C102.36 7.70679 103.188 7.01048 104.063 6.56429 C104.938 6.11811 105.902 5.89502 106.957 5.89502 C108.823 5.89502 110.239 6.46739 111.204 7.61214 C112.169 8.7569 112.65 10.42 112.65 12.6013 Z M117.357 0 L122.522 0 L122.522 12.2092 L128.474 6.28712 L134.464 6.28712 L126.58 13.6965 L135.086 22.4309 L128.825 22.4309 L122.522 15.6975 L122.522 22.4309 L117.357 22.4309 L117.357 0 Z M147.392 0.90589 L162.376 0.90589 L162.376 5.0973 L152.951 5.0973 L152.951 9.11289 L161.822 9.11289 L161.822 13.3044 L152.951 13.3044 L152.951 18.2393 L162.701 18.2393 L162.701 22.4309 L147.392 22.4309 L147.392 0.90589 Z M179.268 10.6814 C178.816 10.465 178.365 10.3073 177.915 10.2081 C177.464 10.109 177.014 10.0594 176.562 10.0594 C175.238 10.0594 174.216 10.4853 173.5 11.3371 C172.783 12.1888 172.424 13.408 172.424 14.9944 L172.424 22.4309 L167.258 22.4309 L167.258 6.28712 L172.424 6.28712 L172.424 8.93715 C173.092 7.88257 173.855 7.11188 174.717 6.62514 C175.578 6.13839 176.608 5.89502 177.808 5.89502 C177.978 5.89502 178.165 5.90178 178.369 5.9153 C178.571 5.92882 178.865 5.95812 179.253 6.00318 L179.268 10.6814 Z M192.398 0 L192.398 3.38017 L189.545 3.38017 C188.815 3.38017 188.306 3.51312 188.017 3.77903 C187.728 4.04494 187.584 4.50238 187.584 5.15138 L187.584 6.28712 L192.007 6.28712 L192.007 9.97822 L187.584 9.97822 L187.584 22.4309 L182.419 22.4309 L182.419 9.97822 L179.862 9.97822 L179.862 6.28712 L182.419 6.28712 L182.419 5.15138 C182.419 3.39369 182.91 2.09571 183.892 1.25742 C184.875 0.419141 186.394 0 188.45 0 L192.398 0 Z M194.399 16.1437 L194.399 6.28712 L199.593 6.28712 L199.593 7.89608 C199.593 8.7704 199.587 9.86781 199.573 11.1884 C199.559 12.5088 199.552 13.3901 199.552 13.8317 C199.552 15.1296 199.587 16.0648 199.654 16.6373 C199.722 17.2095 199.837 17.6264 199.998 17.8879 C200.215 18.2214 200.494 18.4806 200.838 18.6653 C201.18 18.8502 201.573 18.9424 202.014 18.9424 C203.087 18.9424 203.931 18.5302 204.55 17.7053 C205.166 16.8806 205.476 15.729 205.476 14.2509 L205.476 6.28712 L210.628 6.28712 L210.628 22.4309 L205.476 22.4309 L205.476 20.0918 C204.691 21.0382 203.864 21.7345 202.994 22.1807 C202.124 22.6268 201.166 22.8499 200.121 22.8499 C198.254 22.8499 196.835 22.2776 195.861 21.1328 C194.887 19.9881 194.399 18.325 194.399 16.1437 Z M227.519 10.6814 C227.068 10.465 226.617 10.3073 226.166 10.2081 C225.716 10.109 225.265 10.0594 224.815 10.0594 C223.489 10.0594 222.468 10.4853 221.752 11.3371 C221.034 12.1888 220.677 13.408 220.677 14.9944 L220.677 22.4309 L215.511 22.4309 L215.511 6.28712 L220.677 6.28712 L220.677 8.93715 C221.344 7.88257 222.108 7.11188 222.968 6.62514 C223.829 6.13839 224.859 5.89502 226.059 5.89502 C226.229 5.89502 226.418 5.90178 226.62 5.9153 C226.822 5.92882 227.118 5.95812 227.506 6.00318 L227.519 10.6814 Z M235.66 1.7036 L235.66 6.28712 L240.989 6.28712 L240.989 9.97822 L235.66 9.97822 L235.66 16.8197 C235.66 17.5679 235.812 18.0749 236.114 18.3408 C236.416 18.6068 237.009 18.7396 237.891 18.7396 L240.543 18.7396 L240.543 22.4309 L236.107 22.4309 C234.069 22.4309 232.626 22.0049 231.779 21.1531 C230.932 20.3013 230.508 18.8569 230.508 16.8197 L230.508 9.97822 L227.939 9.97822 L227.939 6.28712 L230.508 6.28712 L230.508 1.7036 L235.66 1.7036 Z" transform="translate(33.9933, 26.4628)"/>
   <path style="fill:#ffffff; fill-rule:evenodd;stroke:none;" id="Freifunk Erfurt" d="M0 0.90589 L14.984 0.90589 L14.984 5.0973 L5.55816 5.0973 L5.55816 9.11289 L14.4295 9.11289 L14.4295 13.3044 L5.55816 13.3044 L5.55816 22.4309 L0 22.4309 L0 0.90589 Z M30.1438 10.6814 C29.6931 10.465 29.2423 10.3073 28.7915 10.2081 C28.3407 10.109 27.89 10.0594 27.4391 10.0594 C26.1138 10.0594 25.0928 10.4853 24.3761 11.3371 C23.6593 12.1888 23.301 13.408 23.301 14.9944 L23.301 22.4309 L18.135 22.4309 L18.135 6.28712 L23.301 6.28712 L23.301 8.93715 C23.9681 7.88257 24.7322 7.11188 25.5932 6.62514 C26.4542 6.13839 27.4843 5.89502 28.6833 5.89502 C28.8546 5.89502 29.0417 5.90178 29.2446 5.9153 C29.4473 5.92882 29.7427 5.95812 30.1303 6.00318 L30.1438 10.6814 Z M48.7793 14.3184 L48.7793 15.7786 L36.7027 15.7786 C36.829 16.9955 37.2663 17.9059 38.0145 18.5097 C38.7629 19.1137 39.8132 19.4157 41.1656 19.4157 C42.2474 19.4157 43.3586 19.2557 44.4991 18.9357 C45.6396 18.6157 46.8093 18.1268 48.0084 17.4687 L48.0084 21.4438 C46.7913 21.9125 45.5718 22.2641 44.3503 22.4984 C43.1286 22.7327 41.9048 22.8499 40.6787 22.8499 C37.7576 22.8499 35.4878 22.1063 33.8696 20.619 C32.2513 19.1318 31.4421 17.0495 31.4421 14.3725 C31.4421 11.7405 32.2377 9.66956 33.829 8.15973 C35.4203 6.64993 37.6088 5.89502 40.3947 5.89502 C42.9371 5.89502 44.9701 6.65893 46.4938 8.18677 C48.0174 9.71464 48.7793 11.7584 48.7793 14.3184 Z M43.4645 12.6013 C43.4645 11.6188 43.1782 10.8278 42.6058 10.2284 C42.0333 9.62897 41.2872 9.32923 40.3676 9.32923 C39.3669 9.32923 38.5532 9.60873 37.9266 10.1675 C37.3001 10.7264 36.9101 11.5376 36.7569 12.6013 L43.4645 12.6013 Z M52.5928 6.28712 L57.7588 6.28712 L57.7588 22.4309 L52.5928 22.4309 L52.5928 6.28712 Z M52.5928 0 L57.7588 0 L57.7588 4.20494 L52.5928 4.20494 L52.5928 0 Z M73.2973 0 L73.2973 3.38017 L70.4438 3.38017 C69.7136 3.38017 69.2041 3.51312 68.9157 3.77903 C68.6272 4.04494 68.483 4.50238 68.483 5.15138 L68.483 6.28712 L72.9052 6.28712 L72.9052 9.97822 L68.483 9.97822 L68.483 22.4309 L63.3169 22.4309 L63.3169 9.97822 L60.7611 9.97822 L60.7611 6.28712 L63.3169 6.28712 L63.3169 5.15138 C63.3169 3.39369 63.8084 2.09571 64.7911 1.25742 C65.7737 0.419141 67.2929 0 69.3485 0 L73.2973 0 Z M75.2988 16.1437 L75.2988 6.28712 L80.4918 6.28712 L80.4918 7.89608 C80.4918 8.7704 80.485 9.86781 80.4715 11.1884 C80.458 12.5088 80.4512 13.3901 80.4512 13.8317 C80.4512 15.1296 80.485 16.0648 80.5527 16.6373 C80.6203 17.2095 80.7352 17.6264 80.8976 17.8879 C81.1139 18.2214 81.3934 18.4806 81.736 18.6653 C82.0785 18.8502 82.4708 18.9424 82.9126 18.9424 C83.9854 18.9424 84.8306 18.5302 85.4482 17.7053 C86.0657 16.8806 86.3746 15.729 86.3746 14.2509 L86.3746 6.28712 L91.527 6.28712 L91.527 22.4309 L86.3746 22.4309 L86.3746 20.0918 C85.5902 21.0382 84.763 21.7345 83.893 22.1807 C83.023 22.6268 82.065 22.8499 81.0193 22.8499 C79.153 22.8499 77.733 22.2776 76.7594 21.1328 C75.7857 19.9881 75.2988 18.325 75.2988 16.1437 Z M112.65 12.6013 L112.65 22.4309 L107.457 22.4309 L107.457 20.8353 L107.457 14.8999 C107.457 13.5117 107.427 12.5517 107.363 12.0199 C107.3 11.488 107.191 11.1005 107.039 10.8571 C106.84 10.5145 106.568 10.251 106.22 10.0661 C105.874 9.8814 105.479 9.78897 105.037 9.78897 C103.965 9.78897 103.118 10.2036 102.502 11.0329 C101.884 11.8621 101.575 13.0114 101.575 14.4807 L101.575 22.4309 L96.4093 22.4309 L96.4093 6.28712 L101.575 6.28712 L101.575 8.65323 C102.36 7.70679 103.188 7.01048 104.063 6.56429 C104.938 6.11811 105.902 5.89502 106.957 5.89502 C108.823 5.89502 110.239 6.46739 111.204 7.61214 C112.169 8.7569 112.65 10.42 112.65 12.6013 Z M117.357 0 L122.522 0 L122.522 12.2092 L128.474 6.28712 L134.464 6.28712 L126.58 13.6965 L135.086 22.4309 L128.825 22.4309 L122.522 15.6975 L122.522 22.4309 L117.357 22.4309 L117.357 0 Z M147.392 0.90589 L162.376 0.90589 L162.376 5.0973 L152.951 5.0973 L152.951 9.11289 L161.822 9.11289 L161.822 13.3044 L152.951 13.3044 L152.951 18.2393 L162.701 18.2393 L162.701 22.4309 L147.392 22.4309 L147.392 0.90589 Z M179.268 10.6814 C178.816 10.465 178.365 10.3073 177.915 10.2081 C177.464 10.109 177.014 10.0594 176.562 10.0594 C175.238 10.0594 174.216 10.4853 173.5 11.3371 C172.783 12.1888 172.424 13.408 172.424 14.9944 L172.424 22.4309 L167.258 22.4309 L167.258 6.28712 L172.424 6.28712 L172.424 8.93715 C173.092 7.88257 173.855 7.11188 174.717 6.62514 C175.578 6.13839 176.608 5.89502 177.808 5.89502 C177.978 5.89502 178.165 5.90178 178.369 5.9153 C178.571 5.92882 178.865 5.95812 179.253 6.00318 L179.268 10.6814 Z M192.398 0 L192.398 3.38017 L189.545 3.38017 C188.815 3.38017 188.306 3.51312 188.017 3.77903 C187.728 4.04494 187.584 4.50238 187.584 5.15138 L187.584 6.28712 L192.007 6.28712 L192.007 9.97822 L187.584 9.97822 L187.584 22.4309 L182.419 22.4309 L182.419 9.97822 L179.862 9.97822 L179.862 6.28712 L182.419 6.28712 L182.419 5.15138 C182.419 3.39369 182.91 2.09571 183.892 1.25742 C184.875 0.419141 186.394 0 188.45 0 L192.398 0 Z M194.399 16.1437 L194.399 6.28712 L199.593 6.28712 L199.593 7.89608 C199.593 8.7704 199.587 9.86781 199.573 11.1884 C199.559 12.5088 199.552 13.3901 199.552 13.8317 C199.552 15.1296 199.587 16.0648 199.654 16.6373 C199.722 17.2095 199.837 17.6264 199.998 17.8879 C200.215 18.2214 200.494 18.4806 200.838 18.6653 C201.18 18.8502 201.573 18.9424 202.014 18.9424 C203.087 18.9424 203.931 18.5302 204.55 17.7053 C205.166 16.8806 205.476 15.729 205.476 14.2509 L205.476 6.28712 L210.628 6.28712 L210.628 22.4309 L205.476 22.4309 L205.476 20.0918 C204.691 21.0382 203.864 21.7345 202.994 22.1807 C202.124 22.6268 201.166 22.8499 200.121 22.8499 C198.254 22.8499 196.835 22.2776 195.861 21.1328 C194.887 19.9881 194.399 18.325 194.399 16.1437 Z M227.519 10.6814 C227.068 10.465 226.617 10.3073 226.166 10.2081 C225.716 10.109 225.265 10.0594 224.815 10.0594 C223.489 10.0594 222.468 10.4853 221.752 11.3371 C221.034 12.1888 220.677 13.408 220.677 14.9944 L220.677 22.4309 L215.511 22.4309 L215.511 6.28712 L220.677 6.28712 L220.677 8.93715 C221.344 7.88257 222.108 7.11188 222.968 6.62514 C223.829 6.13839 224.859 5.89502 226.059 5.89502 C226.229 5.89502 226.418 5.90178 226.62 5.9153 C226.822 5.92882 227.118 5.95812 227.506 6.00318 L227.519 10.6814 Z M235.66 1.7036 L235.66 6.28712 L240.989 6.28712 L240.989 9.97822 L235.66 9.97822 L235.66 16.8197 C235.66 17.5679 235.812 18.0749 236.114 18.3408 C236.416 18.6068 237.009 18.7396 237.891 18.7396 L240.543 18.7396 L240.543 22.4309 L236.107 22.4309 C234.069 22.4309 232.626 22.0049 231.779 21.1531 C230.932 20.3013 230.508 18.8569 230.508 16.8197 L230.508 9.97822 L227.939 9.97822 L227.939 6.28712 L230.508 6.28712 L230.508 1.7036 L235.66 1.7036 Z" transform="translate(33.9933, 26.4628)"/>
  </g>
  <g id="Group6" clip-path="url(#Clip2)">
   <g id="Mehr Informationen" transform="translate(26.4176, 254.848)">
    <use style="fill:#0c0801;stroke:none;" xlink:href="#GlDejaVuSans-Bold77" transform="matrix(1.012 0 0 1.1 0 -2.63258)"/>
    <use style="fill:#0c0801;stroke:none;" xlink:href="#GlDejaVuSans-Bold101" transform="matrix(1.012 0 0 1.1 10.0706 -2.63258)"/>
    <use style="fill:#0c0801;stroke:none;" xlink:href="#GlDejaVuSans-Bold104" transform="matrix(1.012 0 0 1.1 16.9342 -2.63258)"/>
    <use style="fill:#0c0801;stroke:none;" xlink:href="#GlDejaVuSans-Bold114" transform="matrix(1.012 0 0 1.1 24.1388 -2.63258)"/>
    <use style="fill:#0c0801;stroke:none;" xlink:href="#GlDejaVuSans-Bold73" transform="matrix(1.012 0 0 1.1 32.6528 -2.63258)"/>
    <use style="fill:#0c0801;stroke:none;" xlink:href="#GlDejaVuSans-Bold110" transform="matrix(1.012 0 0 1.1 36.4182 -2.63258)"/>
    <use style="fill:#0c0801;stroke:none;" xlink:href="#GlDejaVuSans-Bold102" transform="matrix(1.012 0 0 1.1 43.6227 -2.63258)"/>
    <use style="fill:#0c0801;stroke:none;" xlink:href="#GlDejaVuSans-Bold111" transform="matrix(1.012 0 0 1.1 48.0255 -2.63258)"/>
    <use style="fill:#0c0801;stroke:none;" xlink:href="#GlDejaVuSans-Bold114" transform="matrix(1.012 0 0 1.1 54.9781 -2.63258)"/>
    <use style="fill:#0c0801;stroke:none;" xlink:href="#GlDejaVuSans-Bold109" transform="matrix(1.012 0 0 1.1 59.9689 -2.63258)"/>
    <use style="fill:#0c0801;stroke:none;" xlink:href="#GlDejaVuSans-Bold97" transform="matrix(1.012 0 0 1.1 70.5139 -2.63258)"/>
    <use style="fill:#0c0801;stroke:none;" xlink:href="#GlDejaVuSans-Bold116" transform="matrix(1.012 0 0 1.1 77.3429 -2.63258)"/>
    <use style="fill:#0c0801;stroke:none;" xlink:href="#GlDejaVuSans-Bold105" transform="matrix(1.012 0 0 1.1 82.1805 -2.63258)"/>
    <use style="fill:#0c0801;stroke:none;" xlink:href="#GlDejaVuSans-Bold111" transform="matrix(1.012 0 0 1.1 85.6494 -2.63258)"/>
    <use style="fill:#0c0801;stroke:none;" xlink:href="#GlDejaVuSans-Bold110" transform="matrix(1.012 0 0 1.1 92.602 -2.63258)"/>
    <use style="fill:#0c0801;stroke:none;" xlink:href="#GlDejaVuSans-Bold101" transform="matrix(1.012 0 0 1.1 99.8065 -2.63258)"/>
    <use style="fill:#0c0801;stroke:none;" xlink:href="#GlDejaVuSans-Bold110" transform="matrix(1.012 0 0 1.1 106.67 -2.63258)"/>
    <use style="fill:#0c0801;stroke:none;" xlink:href="#GlDejaVuSans-Bold117" transform="matrix(1.012 0 0 1.1 117.398 -2.63258)"/>
    <use style="fill:#0c0801;stroke:none;" xlink:href="#GlDejaVuSans-Bold110" transform="matrix(1.012 0 0 1.1 124.603 -2.63258)"/>
    <use style="fill:#0c0801;stroke:none;" xlink:href="#GlDejaVuSans-Bold116" transform="matrix(1.012 0 0 1.1 131.807 -2.63258)"/>
    <use style="fill:#0c0801;stroke:none;" xlink:href="#GlDejaVuSans-Bold101" transform="matrix(1.012 0 0 1.1 136.645 -2.63258)"/>
    <use style="fill:#0c0801;stroke:none;" xlink:href="#GlDejaVuSans-Bold114" transform="matrix(1.012 0 0 1.1 143.508 -2.63258)"/>
    <path style="fill:none; stroke:none;" d="M0 0 L220.773 0 L220.773 17.2992 L0 17.2992 L0 0 Z"/>
   </g>
   <g id="Webadresse" transform="translate(25.7953, 269.182)">
    <use style="fill:#0c0801;stroke:none;" xlink:href="#GlDejaVuSans-Bold104" transform="matrix(1.84 0 0 2 0 -4.80469)"/>
    <use style="fill:#0c0801;stroke:none;" xlink:href="#GlDejaVuSans-Bold116" transform="matrix(1.84 0 0 2 13.0992 -4.80469)"/>
    <use style="fill:#0c0801;stroke:none;" xlink:href="#GlDejaVuSans-Bold116" transform="matrix(1.84 0 0 2 21.8949 -4.80469)"/>
    <use style="fill:#0c0801;stroke:none;" xlink:href="#GlDejaVuSans-Bold112" transform="matrix(1.84 0 0 2 30.6906 -4.80469)"/>
    <use style="fill:#0c0801;stroke:none;" xlink:href="#GlDejaVuSans-Bold58" transform="matrix(1.84 0 0 2 43.8617 -4.80469)"/>
    <use style="fill:#0c0801;stroke:none;" xlink:href="#GlDejaVuSans-Bold47" transform="matrix(1.84 0 0 2 51.2199 -4.80469)"/>
    <use style="fill:#0c0801;stroke:none;" xlink:href="#GlDejaVuSans-Bold47" transform="matrix(1.84 0 0 2 57.9402 -4.80469)"/>
    <use style="fill:#0c0801;stroke:none;" xlink:href="#GlDejaVuSans-Bold101" transform="matrix(1.84 0 0 2 64.6605 -4.80469)"/>
    <use style="fill:#0c0801;stroke:none;" xlink:href="#GlDejaVuSans-Bold114" transform="matrix(1.84 0 0 2 77.1398 -4.80469)"/>
    <use style="fill:#0c0801;stroke:none;" xlink:href="#GlDejaVuSans-Bold102" transform="matrix(1.84 0 0 2 86.2141 -4.80469)"/>
    <use style="fill:#0c0801;stroke:none;" xlink:href="#GlDejaVuSans-Bold117" transform="matrix(1.84 0 0 2 94.2191 -4.80469)"/>
    <use style="fill:#0c0801;stroke:none;" xlink:href="#GlDejaVuSans-Bold114" transform="matrix(1.84 0 0 2 107.318 -4.80469)"/>
    <use style="fill:#0c0801;stroke:none;" xlink:href="#GlDejaVuSans-Bold116" transform="matrix(1.84 0 0 2 116.393 -4.80469)"/>
    <use style="fill:#0c0801;stroke:none;" xlink:href="#GlDejaVuSans-Bold46" transform="matrix(1.84 0 0 2 125.188 -4.80469)"/>
    <use style="fill:#0c0801;stroke:none;" xlink:href="#GlDejaVuSans-Bold102" transform="matrix(1.84 0 0 2 132.178 -4.80469)"/>
    <use style="fill:#0c0801;stroke:none;" xlink:href="#GlDejaVuSans-Bold114" transform="matrix(1.84 0 0 2 140.183 -4.80469)"/>
    <use style="fill:#0c0801;stroke:none;" xlink:href="#GlDejaVuSans-Bold101" transform="matrix(1.84 0 0 2 149.257 -4.80469)"/>
    <use style="fill:#0c0801;stroke:none;" xlink:href="#GlDejaVuSans-Bold105" transform="matrix(1.84 0 0 2 161.737 -4.80469)"/>
    <use style="fill:#0c0801;stroke:none;" xlink:href="#GlDejaVuSans-Bold102" transform="matrix(1.84 0 0 2 168.044 -4.80469)"/>
    <use style="fill:#0c0801;stroke:none;" xlink:href="#GlDejaVuSans-Bold117" transform="matrix(1.84 0 0 2 176.049 -4.80469)"/>
    <use style="fill:#0c0801;stroke:none;" xlink:href="#GlDejaVuSans-Bold110" transform="matrix(1.84 0 0 2 189.148 -4.80469)"/>
    <use style="fill:#0c0801;stroke:none;" xlink:href="#GlDejaVuSans-Bold107" transform="matrix(1.84 0 0 2 202.247 -4.80469)"/>
    <use style="fill:#0c0801;stroke:none;" xlink:href="#GlDejaVuSans-Bold46" transform="matrix(1.84 0 0 2 214.484 -4.80469)"/>
    <use style="fill:#0c0801;stroke:none;" xlink:href="#GlDejaVuSans-Bold110" transform="matrix(1.84 0 0 2 221.474 -4.80469)"/>
    <use style="fill:#0c0801;stroke:none;" xlink:href="#GlDejaVuSans-Bold101" transform="matrix(1.84 0 0 2 234.573 -4.80469)"/>
    <use style="fill:#0c0801;stroke:none;" xlink:href="#GlDejaVuSans-Bold116" transform="matrix(1.84 0 0 2 247.052 -4.80469)"/>
    <path style="fill:none; stroke:none;" d="M0 0 L257.386 0 L257.386 22.6772 L0 22.6772 L0 0 Z"/>
   </g>
  </g>
  <g id="Freifunk-Logo" clip-path="url(#Clip3)">
   <g id="Weier Hintergrund" clip-path="url(#Clip4)">
    <path style="fill:#ffffff; fill-rule:evenodd;stroke:none;" id="Kleiner Kreis" d="M51.5466 25.7731 C51.5466 40.0077 40.008 51.5463 25.7733 51.5463 C11.5391 51.5463 0 40.0077 0 25.7731 C0 11.539 11.5391 0 25.7733 0 C40.008 0 51.5466 11.539 51.5466 25.7731 Z" transform="translate(185.024, 206.74)"/>
    <path style="fill:#ffffff; fill-rule:evenodd;stroke:none;" id="Grosser Kreis" d="M74.5188 37.2586 C74.5188 57.8368 57.8379 74.5173 37.2595 74.5173 C16.6816 74.5173 0 57.8368 0 37.2586 C0 16.6813 16.6816 0 37.2595 0 C57.8379 0 74.5188 16.6813 74.5188 37.2586 Z" transform="translate(211.575, 184.361)"/>
   </g>
   <path style="fill:none;stroke:#dc006a; stroke-width:1.11971; stroke-linecap:butt; stroke-linejoin:miter; stroke-dasharray:none;" id="Kleiner Kreis (magenta)" d="M42.5981 21.7111 C42.5981 33.7022 33.0627 43.4222 21.2991 43.4222 C9.53594 43.4222 0 33.7022 0 21.7111 C0 9.72036 9.53594 0 21.2991 0 C33.0627 0 42.5981 9.72036 42.5981 21.7111 Z" transform="translate(189.704, 210.856)"/>
   <path style="fill:none;stroke:#dc006a; stroke-width:6.05762; stroke-linecap:butt; stroke-linejoin:miter; stroke-dasharray:none;" id="Grosser Kreis 1 (magenta)" d="M60.1618 30.3694 C60.1618 47.1427 46.6947 60.7389 30.0809 60.7389 C13.4677 60.7389 0 47.1427 0 30.3694 C0 13.5969 13.4677 0 30.0809 0 C46.6947 0 60.1618 13.5969 60.1618 30.3694 Z" transform="translate(218.754, 191.25)"/>
   <path style="fill:none;stroke:#dc006a; stroke-width:1.1197; stroke-linecap:butt; stroke-linejoin:miter; stroke-dasharray:none;" id="Grosser Kreis 2 (magenta)" d="M45.9837 23.3801 C45.9837 36.2931 35.6903 46.7604 22.9918 46.7604 C10.2938 46.7604 0 36.2931 0 23.3801 C0 10.4676 10.2938 0 22.9918 0 C35.6903 0 45.9837 10.4676 45.9837 23.3801 Z" transform="translate(225.941, 198.239)"/>
   <path style="fill:#f7b103; fill-rule:evenodd;stroke:none;" id="Pfeil nach rechts" d="M8.54669 0 L3.79853 0 L7.59706 3.59973 L0 3.59973 L0 7.19945 L7.59706 7.19945 L3.79853 10.7991 L8.54669 10.7991 L14.2445 5.39959 L8.54669 0 Z" transform="translate(197.319, 222.109)"/>
   <path style="fill:#f7b103; fill-rule:evenodd;stroke:none;" id="Pfeil nach links" d="M16.8854 18.4995 L10.9259 12.3331 L23.8383 12.3331 L23.8383 6.16653 L10.9259 6.16653 L16.8854 0 L8.93936 0 L0 9.24979 L8.93936 18.4995 L16.8854 18.4995 Z" transform="translate(238.307, 218.271)"/>
  </g>
 </g>
</svg>
