<?xml version="1.0" encoding="UTF-8" standalone="no"?>
<!-- Created with Inkscape (http://www.inkscape.org/) -->

<svg
   xmlns:dc="http://purl.org/dc/elements/1.1/"
   xmlns:cc="http://creativecommons.org/ns#"
   xmlns:rdf="http://www.w3.org/1999/02/22-rdf-syntax-ns#"
   xmlns:svg="http://www.w3.org/2000/svg"
   xmlns="http://www.w3.org/2000/svg"
   xmlns:xlink="http://www.w3.org/1999/xlink"
   xmlns:sodipodi="http://sodipodi.sourceforge.net/DTD/sodipodi-0.dtd"
   xmlns:inkscape="http://www.inkscape.org/namespaces/inkscape"
   width="354.33069"
   height="354.33069"
   id="svg2"
   version="1.1"
   inkscape:version="0.48.5 r10040"
   sodipodi:docname="Aufkleber_100x100mm_3.pdf">
  <defs
     id="defs4">
    <linearGradient
       id="linearGradient6538">
      <stop
         style="stop-color:#000000;stop-opacity:1"
         offset="0"
         id="stop6540" />
      <stop
         style="stop-color:#dc0067;stop-opacity:0;"
         offset="1"
         id="stop6542" />
    </linearGradient>
    <linearGradient
       id="linearGradient5082">
      <stop
         style="stop-color:#1a1a1a;stop-opacity:1;"
         offset="0"
         id="stop5084" />
      <stop
         style="stop-color:#1a1a1a;stop-opacity:0;"
         offset="1"
         id="stop5086" />
    </linearGradient>
    <inkscape:perspective
       sodipodi:type="inkscape:persp3d"
       inkscape:vp_x="0 : 177.16534 : 1"
       inkscape:vp_y="0 : 1000 : 0"
       inkscape:vp_z="354.33069 : 177.16534 : 1"
       inkscape:persp3d-origin="177.16534 : 118.11023 : 1"
       id="perspective5034" />
    <filter
       inkscape:collect="always"
       id="filter6696">
      <feGaussianBlur
         inkscape:collect="always"
         stdDeviation="0.96527344"
         id="feGaussianBlur6698" />
    </filter>
    <linearGradient
       inkscape:collect="always"
       xlink:href="#linearGradient5082"
       id="linearGradient6838"
       gradientUnits="userSpaceOnUse"
       x1="247.33218"
       y1="302.79807"
       x2="237.33897"
       y2="-46.389908" />
    <linearGradient
       inkscape:collect="always"
       xlink:href="#linearGradient5082"
       id="linearGradient6840"
       gradientUnits="userSpaceOnUse"
       gradientTransform="translate(0,-46.860572)"
       x1="88.451561"
       y1="279.01816"
       x2="88.004066"
       y2="126.95675" />
    <linearGradient
       inkscape:collect="always"
       xlink:href="#linearGradient5082"
       id="linearGradient6842"
       gradientUnits="userSpaceOnUse"
       x1="130.96875"
       y1="196.90535"
       x2="130.96875"
       y2="130.97313" />
    <linearGradient
       inkscape:collect="always"
       xlink:href="#linearGradient5082"
       id="linearGradient6844"
       gradientUnits="userSpaceOnUse"
       x1="207.79958"
       y1="411.80356"
       x2="207.79958"
       y2="320.00699" />
  </defs>
  <sodipodi:namedview
     id="base"
     pagecolor="#ffffff"
     bordercolor="#666666"
     borderopacity="1.0"
     inkscape:pageopacity="0.0"
     inkscape:pageshadow="2"
     inkscape:zoom="2.0197478"
     inkscape:cx="208.09049"
     inkscape:cy="142.60004"
     inkscape:document-units="px"
     inkscape:current-layer="layer1"
     showgrid="false"
     units="mm"
     showguides="true"
     inkscape:window-width="1400"
     inkscape:window-height="997"
     inkscape:window-x="0"
     inkscape:window-y="31"
     inkscape:window-maximized="1"
     inkscape:guide-bbox="true">
    <sodipodi:guide
       orientation="1,0"
       position="24.208548,78.291473"
       id="guide6700" />
  </sodipodi:namedview>
  <metadata
     id="metadata7">
    <rdf:RDF>
      <cc:Work
         rdf:about="">
        <dc:format>image/svg+xml</dc:format>
        <dc:type
           rdf:resource="http://purl.org/dc/dcmitype/StillImage" />
        <dc:title></dc:title>
      </cc:Work>
    </rdf:RDF>
  </metadata>
  <g
     inkscape:label="Layer 1"
     inkscape:groupmode="layer"
     id="layer1"
     transform="translate(0,-698.03148)">
    <g
       id="g6708">
      <rect
         transform="scale(1,-1)"
         style="fill:#ffb400;fill-opacity:1;stroke:none"
         id="rect6590"
         width="336.61417"
         height="36.422348"
         x="8.8582611"
         y="-1043.6716"
         rx="7.0866141"
         ry="4.8563132" />
      <rect
         transform="scale(1,-1)"
         y="-1011.7709"
         x="8.8582611"
         height="26.536615"
         width="336.61417"
         id="rect6592"
         style="fill:#ffb400;fill-opacity:1;stroke:none" />
    </g>
    <rect
       style="fill:#dc0067;fill-opacity:1;stroke:none"
       id="rect3180"
       width="336.61417"
       height="41.685547"
       x="8.8582611"
       y="706.86969"
       rx="7.0866141"
       ry="5.558073" />
    <rect
       y="734.0907"
       x="8.8582611"
       height="49.19994"
       width="336.61417"
       id="rect4205"
       style="fill:#dc0067;fill-opacity:1;stroke:none" />
    <rect
       style="fill:none;stroke:#000000;stroke-width:1.09842515;stroke-miterlimit:10.43299961;stroke-opacity:1;stroke-dasharray:none"
       id="rect3167"
       width="336.61417"
       height="336.61417"
       x="8.8582611"
       y="706.88977"
       rx="7.0866141"
       ry="7.0866141" />
    <path
       style="fill:#ffffff;stroke:none"
       d="m 274.25594,987.5887 20.59689,7.9407 21.5944,-7.3982 20.55746,-32.10742 -110.85781,3.8991 11.37956,36.27562 z"
       id="path4185"
       inkscape:connector-curvature="0"
       sodipodi:nodetypes="ccccccc" />
    <g
       transform="matrix(0.75702175,0,0,0.75702175,214.13804,911.97873)"
       id="g3994">
      <g
         id="g3996" />
      <g
         id="g4000">
        <circle
           id="circle4179"
           stroke-miterlimit="4"
           transform="matrix(1.477616,0,0,1.5065066,-3.122124,-2.4350016)"
           r="22"
           cy="54"
           cx="36"
           sodipodi:cx="36"
           sodipodi:cy="54"
           sodipodi:rx="22"
           sodipodi:ry="22"
           style="fill:none;stroke:#ffffff;stroke-width:8.85371113;stroke-miterlimit:4;stroke-opacity:1;stroke-dasharray:none"
           d="M 58,54 C 58,66.150264 48.150264,76 36,76 23.849736,76 14,66.150264 14,54 14,41.849736 23.849736,32 36,32 c 12.150264,0 22,9.849736 22,22 z" />
        <circle
           id="circle4159"
           stroke-miterlimit="4"
           transform="matrix(1.5831269,0,0,1.5986441,-9.3397104,-8.1360194)"
           r="29"
           cy="44"
           cx="74"
           sodipodi:cx="74"
           sodipodi:cy="44"
           sodipodi:rx="29"
           sodipodi:ry="29"
           style="fill:none;stroke:#ffffff;stroke-width:13.28549862;stroke-miterlimit:4;stroke-opacity:1;stroke-dasharray:none"
           d="M 103,44 C 103,60.016258 90.016258,73 74,73 57.983742,73 45,60.016258 45,44 45,27.983742 57.983742,15 74,15 c 16.016258,0 29,12.983742 29,29 z" />
        <circle
           d="M 58,54 C 58,66.150264 48.150264,76 36,76 23.849736,76 14,66.150264 14,54 14,41.849736 23.849736,32 36,32 c 12.150264,0 22,9.849736 22,22 z"
           style="fill:none;stroke:#de2c68;stroke-width:1.14544892;stroke-miterlimit:4;stroke-opacity:1;stroke-dasharray:none"
           sodipodi:ry="22"
           sodipodi:rx="22"
           sodipodi:cy="54"
           sodipodi:cx="36"
           cx="36"
           cy="54"
           r="22"
           transform="matrix(1.477616,0,0,1.5065066,-3.122124,-2.4350016)"
           stroke-miterlimit="4"
           id="circle4002" />
        <circle
           d="M 96,44 C 96,56.150264 86.150264,66 74,66 61.849736,66 52,56.150264 52,44 52,31.849736 61.849736,22 74,22 c 12.150264,0 22,9.849736 22,22 z"
           style="fill:none;stroke:#de2c68;stroke-width:1.06239557;stroke-miterlimit:4;stroke-opacity:1;stroke-dasharray:none"
           sodipodi:ry="22"
           sodipodi:rx="22"
           sodipodi:cy="44"
           sodipodi:cx="74"
           cx="74"
           cy="44"
           r="22"
           transform="matrix(1.5950476,0,0,1.6223254,-10.072136,-9.1778182)"
           stroke-miterlimit="4"
           id="circle4004" />
        <circle
           d="M 103,44 C 103,60.016258 90.016258,73 74,73 57.983742,73 45,60.016258 45,44 45,27.983742 57.983742,15 74,15 c 16.016258,0 29,12.983742 29,29 z"
           style="fill:none;stroke:#de2c68;stroke-width:5.81192684;stroke-miterlimit:4;stroke-opacity:1;stroke-dasharray:none"
           sodipodi:ry="29"
           sodipodi:rx="29"
           sodipodi:cy="44"
           sodipodi:cx="74"
           cx="74"
           cy="44"
           r="29"
           transform="matrix(1.5831269,0,0,1.5986441,-9.3397104,-8.1360194)"
           stroke-miterlimit="4"
           id="circle4006" />
        <polygon
           style="fill:#ffcc33;fill-opacity:1"
           points="31,44 26,44 30,48 22,48 22,52 30,52 26,56 31,56 37,50 "
           transform="matrix(1.4493674,0,0,1.3737988,-2.70016,2.5042672)"
           id="polygon4008" />
        <polygon
           style="fill:#ffcc33;fill-opacity:1"
           points="81,59 75,53 88,53 88,47 75,47 81,41 73,41 64,50 73,59 "
           transform="matrix(1.5159598,0,0,1.568926,-5.2784314,-7.233634)"
           id="polygon4010" />
      </g>
      <g
         transform="scale(1.1199445,0.89290136)"
         id="g4012" />
    </g>
    <g
       id="g6827"
       transform="translate(2.9971622e-7,19.999996)">
      <g
         style="fill:#000000;fill-opacity:1"
         transform="matrix(0.42679803,0,0,0.42679803,67.905299,761.93664)"
         id="g5021">
        <path
           style="fill:#000000;fill-opacity:1"
           inkscape:connector-curvature="0"
           d="m 233.503,70.369 c 93.726,-6.75 189.622,28.317 256.515,94.363 8.765,9.023 7.622,24.807 -1.625,33.076 -8.493,10.012 -25.501,10.189 -34.266,0.436 -57.224,-55.091 -138.018,-84.881 -217.35,-78.956 -65.905,4.24 -129.749,32.628 -177.572,78.096 -4.253,4.347 -9.684,7.916 -15.938,8.222 -15.666,1.837 -30.154,-14.536 -26.773,-29.86 0.954,-5.501 4.487,-10.083 8.527,-13.747 55.988,-53.607 131.151,-86.53 208.482,-91.63 z"
           id="path5007" />
        <path
           style="fill:#000000;fill-opacity:1"
           inkscape:connector-curvature="0"
           d="m 231.183,162.282 c 71.806,-7.81 146.369,18.658 197.183,69.968 7.939,9.07 6.95,23.901 -1.872,32.052 -8.046,9.847 -24.265,10.953 -33.383,2.024 -32.534,-32.074 -76.518,-52.44 -122.126,-55.774 -55.387,-4.594 -111.974,16.42 -151.411,55.445 -9.094,9.612 -26.033,8.518 -34.218,-1.708 -8.823,-8.327 -9.553,-23.559 -1.084,-32.381 39.084,-39.106 91.937,-63.984 146.911,-69.626 z"
           id="path5009" />
        <path
           style="fill:#000000;fill-opacity:1"
           inkscape:connector-curvature="0"
           d="m 241.796,252.97 c 45.314,-4.499 92.161,12.852 123.693,45.669 8.634,8.987 7.634,24.454 -1.461,32.77 -8.257,9.966 -24.807,10.638 -33.782,1.296 -17.774,-18.245 -42.394,-29.778 -67.884,-31.168 -28.929,-2.062 -58.201,9.365 -78.744,29.695 -5.053,5.679 -12.557,9.165 -20.237,8.259 -17.833,-1.25 -30.213,-25.056 -17.928,-39.344 24.807,-26.904 60.039,-43.572 96.343,-47.177 z"
           id="path5011" />
        <path
           style="fill:#000000;fill-opacity:1"
           inkscape:connector-curvature="0"
           d="m 248.781,337.651 c 29.201,-4.9 58.837,19.213 59.78,48.824 2.709,29.036 -22.923,56.589 -52.063,55.951 -26.197,0.908 -50.475,-20.825 -52.772,-46.88 -3.735,-27.352 17.656,-54.738 45.055,-57.895 z"
           id="path5013" />
        <path
           inkscape:connector-curvature="0"
           id="path5079"
           d="m 253.78151,98.629418 c -96.71385,0 -181.913494,38.671002 -231.886611,97.382122 5.156142,6.39256 13.074859,10.56565 21.380136,9.59177 6.254001,-0.306 11.708883,-3.8536 15.961883,-8.2006 47.822992,-45.46799 111.652642,-73.88536 177.557632,-78.12535 79.332,-5.92501 160.09191,23.83977 217.31591,78.93077 8.55528,9.51965 24.92968,9.60592 33.60781,0.29288 C 438.05216,138.39591 351.85581,98.629418 253.78151,98.629418 z"
           style="fill:url(#linearGradient6838);fill-opacity:1;fill-rule:nonzero" />
        <path
           inkscape:connector-curvature="0"
           id="path6712"
           d="m 256.05132,191.69158 c -76.92908,0 -142.46378,31.5153 -167.599762,75.70911 8.82694,7.2221 23.051932,7.13471 31.118342,-1.39118 39.43699,-39.02499 96.03123,-60.02127 151.41823,-55.42727 45.60799,3.33399 89.59636,23.64615 122.13036,55.72015 8.10433,7.93633 21.78724,7.88926 30.38616,0.87864 -25.23049,-44.07551 -90.65513,-75.48945 -167.45333,-75.48945 z"
           style="opacity:0.5;fill:url(#linearGradient6840);fill-opacity:1" />
        <path
           id="path6774"
           transform="matrix(2.3430286,0,0,2.3430286,-159.10406,-149.73162)"
           d="m 176.65625,184.9375 c -19.79312,0 -36.97824,8.28744 -45.6875,20.46875 1.73245,1.89783 4.04388,3.22314 6.65625,3.40625 3.27781,0.38668 6.49964,-1.10746 8.65625,-3.53125 8.76771,-8.6768 21.24691,-13.56756 33.59375,-12.6875 10.87908,0.59325 21.38284,5.52557 28.96875,13.3125 3.64202,3.79095 10.20874,3.70353 13.875,0.0312 -8.58614,-12.46786 -25.98595,-21 -46.0625,-21 z"
           style="opacity:0.5;fill:url(#linearGradient6842);fill-opacity:1"
           inkscape:connector-curvature="0" />
        <path
           inkscape:connector-curvature="0"
           id="path6798"
           d="m 254.95303,381.18401 c -19.92887,0 -37.3614,11.8994 -47.15346,29.72718 8.34006,18.6533 27.89301,32.20533 48.69107,31.48445 19.83123,0.43418 38.03283,-12.17349 46.78735,-29.4343 -9.54601,-18.98359 -27.62738,-31.77733 -48.32496,-31.77733 z"
           style="opacity:0.5;fill:url(#linearGradient6844);fill-opacity:1;stroke:none" />
      </g>
    </g>
    <text
       xml:space="preserve"
       style="font-size:32px;font-style:normal;font-variant:normal;font-weight:bold;font-stretch:normal;text-align:start;line-height:125%;letter-spacing:0px;word-spacing:0px;writing-mode:lr-tb;text-anchor:start;opacity:0.35400008;fill:#000000;fill-opacity:1;stroke:#000000;stroke-width:4;filter:url(#filter6696);font-family:DejaVu Sans;-inkscape-font-specification:DejaVu Sans Bold"
       x="43.134094"
       y="746.88318"
       id="text6612"
       sodipodi:linespacing="125%"><tspan
         sodipodi:role="line"
         x="43.134094"
         y="746.88318"
         id="tspan6614"
         style="font-size:32px;font-style:normal;font-variant:normal;font-weight:bold;font-stretch:normal;text-align:start;line-height:125%;writing-mode:lr-tb;text-anchor:start;fill:#000000;fill-opacity:1;stroke:#000000;stroke-width:4;font-family:DejaVu Sans;-inkscape-font-specification:DejaVu Sans Bold">Freifunk Erfurt</tspan></text>
    <text
       sodipodi:linespacing="125%"
       id="text5028"
       y="746.88318"
       x="43.134094"
       style="font-size:32px;font-style:normal;font-variant:normal;font-weight:bold;font-stretch:normal;text-align:start;line-height:125%;letter-spacing:0px;word-spacing:0px;writing-mode:lr-tb;text-anchor:start;fill:#ffffff;fill-opacity:1;stroke:none;font-family:DejaVu Sans;-inkscape-font-specification:DejaVu Sans Bold"
       xml:space="preserve"><tspan
         style="font-size:32px;font-style:normal;font-variant:normal;font-weight:bold;font-stretch:normal;text-align:start;line-height:125%;writing-mode:lr-tb;text-anchor:start;fill:#ffffff;fill-opacity:1;font-family:DejaVu Sans;-inkscape-font-specification:DejaVu Sans Bold"
         id="tspan5030"
         y="746.88318"
         x="43.134094"
         sodipodi:role="line">Freifunk Erfurt</tspan></text>
    <g
       style="fill:#000000;fill-opacity:1"
       transform="matrix(0.42679803,0,0,0.42679803,67.905299,779.93664)"
       id="g5050" />
    <g
       id="g6702"
       transform="translate(-3.9905233,1.8642607)">
      <text
         xml:space="preserve"
         style="font-size:24px;font-style:normal;font-variant:normal;font-weight:bold;font-stretch:semi-condensed;text-align:start;line-height:125%;letter-spacing:0px;word-spacing:0px;writing-mode:lr-tb;text-anchor:start;fill:#000000;fill-opacity:1;stroke:none;font-family:DejaVu Sans;-inkscape-font-specification:DejaVu Sans Bold Semi-Condensed"
         x="30.403349"
         y="1028.0182"
         id="text6604"
         sodipodi:linespacing="125%"><tspan
           sodipodi:role="line"
           x="30.403349"
           y="1028.0182"
           id="tspan6606"
           style="font-size:24px;font-style:normal;font-variant:normal;font-weight:bold;font-stretch:semi-condensed;text-align:start;line-height:125%;writing-mode:lr-tb;text-anchor:start;font-family:DejaVu Sans;-inkscape-font-specification:DejaVu Sans Bold Semi-Condensed">http://erfurt.freifunk.net</tspan></text>
      <text
         sodipodi:linespacing="125%"
         id="text6608"
         y="1004.7562"
         x="31.128601"
         style="font-size:13px;font-style:normal;font-variant:normal;font-weight:bold;font-stretch:semi-condensed;text-align:start;line-height:125%;letter-spacing:0px;word-spacing:0px;writing-mode:lr-tb;text-anchor:start;fill:#000000;fill-opacity:1;stroke:none;font-family:DejaVu Sans;-inkscape-font-specification:DejaVu Sans Bold Semi-Condensed"
         xml:space="preserve"><tspan
           style="font-size:13px;font-style:normal;font-variant:normal;font-weight:bold;font-stretch:semi-condensed;text-align:start;line-height:125%;writing-mode:lr-tb;text-anchor:start;font-family:DejaVu Sans;-inkscape-font-specification:DejaVu Sans Bold Semi-Condensed"
           id="tspan6610"
           y="1004.7562"
           x="31.128601"
           sodipodi:role="line">Mehr Informationen unter</tspan></text>
    </g>
    <g
       transform="translate(13.199829,-502.20704)"
       id="g6865"
       style="fill:#ffffff">
      <text
         sodipodi:linespacing="125%"
         id="text6867"
         y="1273.6724"
         x="31.128601"
         style="font-size:20px;font-style:normal;font-variant:normal;font-weight:bold;font-stretch:semi-condensed;text-align:start;line-height:125%;letter-spacing:0px;word-spacing:0px;writing-mode:lr-tb;text-anchor:start;fill:#ffffff;fill-opacity:1;stroke:none;font-family:DejaVu Sans;-inkscape-font-specification:DejaVu Sans Bold Semi-Condensed"
         xml:space="preserve"><tspan
           style="font-size:20px;font-style:normal;font-variant:normal;font-weight:bold;font-stretch:semi-condensed;text-align:start;line-height:125%;writing-mode:lr-tb;text-anchor:start;fill:#ffffff;font-family:DejaVu Sans;-inkscape-font-specification:DejaVu Sans Bold Semi-Condensed"
           id="tspan6869"
           y="1273.6724"
           x="31.128601"
           sodipodi:role="line">Wir machen mit. Du auch?</tspan></text>
    </g>
  </g>
</svg>
